<svg width="14" height="14" viewBox="0 0 14 14" fill="none" xmlns="http://www.w3.org/2000/svg">
<path d="M9.04683 6.49992L8.44683 7.11325C7.96683 7.59325 7.66683 7.99992 7.66683 8.99992H6.3335V8.66659C6.3335 7.92659 6.6335 7.25992 7.1135 6.77992L7.94016 5.93992C8.18683 5.69992 8.3335 5.36659 8.3335 4.99992C8.3335 4.25992 7.7335 3.66659 7.00016 3.66659C6.64654 3.66659 6.3074 3.80706 6.05735 4.05711C5.80731 4.30716 5.66683 4.6463 5.66683 4.99992H4.3335C4.3335 4.29267 4.61445 3.6144 5.11454 3.1143C5.61464 2.6142 6.29292 2.33325 7.00016 2.33325C7.70741 2.33325 8.38568 2.6142 8.88578 3.1143C9.38588 3.6144 9.66683 4.29267 9.66683 4.99992C9.66683 5.58659 9.42683 6.11325 9.04683 6.49992ZM7.66683 11.6666H6.3335V10.3333H7.66683V11.6666ZM7.00016 0.333252C6.12468 0.333252 5.25778 0.50569 4.44894 0.840722C3.6401 1.17575 2.90517 1.66682 2.28612 2.28587C1.03588 3.53612 0.333496 5.23181 0.333496 6.99992C0.333496 8.76803 1.03588 10.4637 2.28612 11.714C2.90517 12.333 3.6401 12.8241 4.44894 13.1591C5.25778 13.4941 6.12468 13.6666 7.00016 13.6666C8.76827 13.6666 10.464 12.9642 11.7142 11.714C12.9645 10.4637 13.6668 8.76803 13.6668 6.99992C13.6668 3.31325 10.6668 0.333252 7.00016 0.333252Z" fill="#664C89"/>
</svg>
