<svg width="17" height="13" viewBox="0 0 17 13" fill="none" xmlns="http://www.w3.org/2000/svg">
<path d="M9.2085 3.66658C9.2085 4.41803 8.90998 5.1387 8.37863 5.67005C7.84728 6.20141 7.12661 6.49992 6.37516 6.49992C5.62372 6.49992 4.90305 6.20141 4.37169 5.67005C3.84034 5.1387 3.54183 4.41803 3.54183 3.66658C3.54183 2.91514 3.84034 2.19447 4.37169 1.66312C4.90305 1.13176 5.62372 0.833252 6.37516 0.833252C7.12661 0.833252 7.84728 1.13176 8.37863 1.66312C8.90998 2.19447 9.2085 2.91514 9.2085 3.66658ZM12.0418 10.7499V12.1666H0.708496V10.7499C0.708496 9.1845 3.24433 7.91658 6.37516 7.91658C9.50599 7.91658 12.0418 9.1845 12.0418 10.7499ZM14.521 8.27075V9.33325H13.4585V8.27075H14.521ZM13.1043 4.72908H12.0418V4.37492C12.0418 3.81133 12.2657 3.27083 12.6642 2.87232C13.0627 2.4738 13.6032 2.24992 14.1668 2.24992C14.7304 2.24992 15.2709 2.4738 15.6694 2.87232C16.0679 3.27083 16.2918 3.81133 16.2918 4.37492C16.2918 5.062 15.9377 5.70658 15.3781 6.082L15.1656 6.21659C14.7618 6.49992 14.521 6.932 14.521 7.42075V7.56242H13.4585V7.42075C13.4585 6.57783 13.8835 5.79158 14.5847 5.33117L14.7902 5.19658C15.0664 5.01242 15.2293 4.70783 15.2293 4.37492C15.2293 4.09313 15.1174 3.82287 14.9181 3.62362C14.7189 3.42436 14.4486 3.31242 14.1668 3.31242C13.885 3.31242 13.6148 3.42436 13.4155 3.62362C13.2163 3.82287 13.1043 4.09313 13.1043 4.37492V4.72908Z" fill="#664C89"/>
</svg>
