<svg width="15" height="15" viewBox="0 0 15 15" fill="none" xmlns="http://www.w3.org/2000/svg">
<path d="M7.5 0.625C6.6712 0.625 5.87634 0.95424 5.29029 1.54029C4.70424 2.12634 4.375 2.9212 4.375 3.75V5H3.75C3.41848 5 3.10054 5.1317 2.86612 5.36612C2.6317 5.60054 2.5 5.91848 2.5 6.25V12.5C2.5 12.8315 2.6317 13.1495 2.86612 13.3839C3.10054 13.6183 3.41848 13.75 3.75 13.75H11.25C11.5815 13.75 11.8995 13.6183 12.1339 13.3839C12.3683 13.1495 12.5 12.8315 12.5 12.5V6.25C12.5 5.91848 12.3683 5.60054 12.1339 5.36612C11.8995 5.1317 11.5815 5 11.25 5H10.625V3.75C10.625 3.33962 10.5442 2.93326 10.3871 2.55411C10.2301 2.17497 9.99989 1.83047 9.70971 1.54029C9.41952 1.25011 9.07503 1.01992 8.69588 0.862876C8.31674 0.705831 7.91038 0.625 7.5 0.625ZM7.5 1.8125C8.56875 1.8125 9.4375 2.68125 9.4375 3.75V5H5.5625V3.75C5.5625 2.68125 6.43125 1.8125 7.5 1.8125ZM7.61875 6.5625C8.20625 6.5625 8.675 6.69375 9.0125 6.95C9.35 7.2125 9.51875 7.5625 9.51875 8C9.51875 8.275 9.425 8.51875 9.24375 8.75C9.0625 8.975 8.825 9.15 8.5375 9.28125C8.375 9.375 8.26875 9.46875 8.2125 9.575C8.15625 9.6875 8.125 9.825 8.125 10H6.875C6.875 9.6875 6.9375 9.475 7.05625 9.325C7.1875 9.175 7.4 9 7.725 8.8C7.8875 8.7125 8.01875 8.6 8.125 8.4625C8.2125 8.33125 8.2625 8.175 8.2625 8C8.2625 7.8125 8.20625 7.675 8.09375 7.56875C7.98125 7.45625 7.8125 7.40625 7.61875 7.40625C7.45 7.40625 7.3125 7.45 7.1875 7.5375C7.0875 7.625 7.025 7.75625 7.025 7.93125H5.79375C5.7625 7.5 5.9375 7.125 6.28125 6.9C6.61875 6.675 7.0625 6.5625 7.61875 6.5625ZM6.875 10.625H8.125V11.875H6.875V10.625Z" fill="#664C89"/>
</svg>
